<svg xmlns="http://www.w3.org/2000/svg" xmlns:xlink="http://www.w3.org/1999/xlink" width="32" height="32" viewBox="0 0 32 32">
  <defs>
    <style>
      .cls-1 {
        fill: none;
      }

      .cls-2 {
        clip-path: url(#clip-iconGestionFechas2);
      }

      .cls-3 {
        clip-path: url(#clip-path);
      }

      .cls-4 {
        fill: #9bc8fe;
      }

      .cls-5 {
        fill: #2e72b9;
      }

      .cls-6 {
        fill: #fdfcfd;
      }
    </style>
    <clipPath id="clip-path">
      <rect id="Rectángulo_11094" data-name="Rectángulo 11094" class="cls-1" width="27.866" height="27.383"/>
    </clipPath>
    <clipPath id="clip-iconGestionFechas2">
      <rect width="32" height="32"/>
    </clipPath>
  </defs>
  <g id="iconGestionFechas2" class="cls-2">
    <g id="Grupo_22767" data-name="Grupo 22767" transform="translate(2.067 2.309)">
      <g id="Enmascarar_grupo_22733" data-name="Enmascarar grupo 22733" class="cls-3" transform="translate(0 -0.001)">
        <path id="Trazado_16655" data-name="Trazado 16655" class="cls-4" d="M32.685,29.338h.606a1.254,1.254,0,0,0,.792.2,2.647,2.647,0,0,1,1.325.305,2.057,2.057,0,0,1,1.055,1.835c.028,1.374.011,2.749.006,4.124,0,.346-.068.4-.413.417-.093,0-.187,0-.281,0H10.833c-.7,0-.7,0-.7-.7,0-1.253-.014-2.507,0-3.76A2.087,2.087,0,0,1,11.508,29.7a2.72,2.72,0,0,1,1.019-.163,1.241,1.241,0,0,0,.792-.2h.606c.113.1.076.242.082.369a9.194,9.194,0,0,0,.031.979,1.909,1.909,0,0,0,3.8-.281c.008-.252,0-.5,0-.756,0-.109-.019-.228.084-.311l.606,0a.986.986,0,0,0,.748.2,6.851,6.851,0,0,1,.776,0,.6.6,0,0,0,.619-.264.727.727,0,0,0,.156.054c.44.048.444.034.457-.406a2.8,2.8,0,0,1,.043-.884c.116.1.087.24.088.366,0,.682.007,1.363,0,2.045a1.885,1.885,0,0,0,3.769,0c0-.682,0-1.363,0-2.045,0-.127-.028-.265.088-.367a2.789,2.789,0,0,1,.043.883c.013.44.018.454.457.406a.723.723,0,0,0,.156-.054.6.6,0,0,0,.621.264c.278-.015.557-.013.835,0a.891.891,0,0,0,.672-.195l.621-.014c.1.083.082.2.084.311.005.271,0,.542,0,.813A1.956,1.956,0,0,0,30.308,32.3a1.923,1.923,0,0,0,2.226-1.418,5.6,5.6,0,0,0,.07-1.172c0-.127-.031-.265.082-.369" transform="translate(-9.372 -25.942)"/>
        <path id="Trazado_16656" data-name="Trazado 16656" class="cls-5" d="M27.856,40.563h0a2.83,2.83,0,0,0-1.9-2.619,3.746,3.746,0,0,0-1.3-.168l-.267,0a.613.613,0,0,0-.694.517l-.012.058.018.057a.621.621,0,0,0,.71.449,2.329,2.329,0,0,1,.285,0l.111,0a1.838,1.838,0,0,1,1.973,2q0,.525,0,1.049v.05c0,.936,0,1.9.008,2.859a.553.553,0,0,1-.006.1.686.686,0,0,1-.114.007c-3.236-.007-6.491-.007-9.817-.006H12.147c-3.6,0-7.321,0-10.983.005a.72.72,0,0,1-.086,0,.559.559,0,0,1,0-.074c.007-.726.006-1.465.006-2.182,0-.636,0-1.293,0-1.943a1.782,1.782,0,0,1,.793-1.535,2.549,2.549,0,0,1,1.588-.319A.636.636,0,0,0,4.16,38.4l.018-.057-.012-.058a.615.615,0,0,0-.7-.515c-.1.007-.2.005-.306,0H3a2.867,2.867,0,0,0-3,2.986c0,6.176,0,12.426,0,18.576a2.85,2.85,0,0,0,2.972,2.981c3.558,0,7.158,0,10.708,0H24.889a3.076,3.076,0,0,0,1.1-.175,2.884,2.884,0,0,0,1.877-2.837q0-6.584,0-13.167v-1.4q0-.538,0-1.076v-.054c0-1,0-2.034-.009-3.054" transform="translate(0 -34.938)"/>
        <path id="Trazado_16657" data-name="Trazado 16657" class="cls-5" d="M61.7,3.889V3.875c0-.119,0-.237,0-.362,0-.258,0-.524-.011-.791a2.243,2.243,0,0,0-4.459-.314,4.489,4.489,0,0,0-.039.84,5.016,5.016,0,0,1-.013.607l0,.028,0,.021a5.464,5.464,0,0,1,.012.6,4.438,4.438,0,0,0,.05.906,2.239,2.239,0,0,0,4.4,0,4.4,4.4,0,0,0,.05-.907,5.414,5.414,0,0,1,.012-.6Z" transform="translate(-52.881 -0.484)"/>
        <path id="Trazado_16658" data-name="Trazado 16658" class="cls-5" d="M258.019,3.417V3.4c0-.117,0-.234,0-.354,0-.252,0-.513-.012-.771A2.3,2.3,0,0,0,255.964.018a2.253,2.253,0,0,0-2.5,1.905,4.3,4.3,0,0,0-.041.873,5.064,5.064,0,0,1-.008.58l0,.028,0,.028a5.057,5.057,0,0,1,.009.589,3.886,3.886,0,0,0,.064.983,2.339,2.339,0,0,0,2.225,1.786h.049a2.33,2.33,0,0,0,2.193-1.879,4.4,4.4,0,0,0,.048-.892,5.239,5.239,0,0,1,.012-.584Z" transform="translate(-234.406 -0.009)"/>
        <path id="Trazado_16659" data-name="Trazado 16659" class="cls-5" d="M159.877,4.417c-.019-.53-.014-1.072-.009-1.6,0-.239,0-.477,0-.725V2.071a2.282,2.282,0,0,0-4.545.009V2.1c0,.26,0,.521,0,.782,0,.581-.009,1.182.016,1.778a2.169,2.169,0,0,0,.736,1.539,2.263,2.263,0,0,0,1.5.571c.056,0,.113,0,.168-.006a2.258,2.258,0,0,0,2.13-2.351" transform="translate(-143.668)"/>
        <path id="Trazado_16660" data-name="Trazado 16660" class="cls-5" d="M120.516,37.3H120.5c-.463.006-.891.006-1.309,0h-.015a.634.634,0,0,0-.681.551l-.013.067.021.065a.656.656,0,0,0,.686.476h.043c.37-.013.772-.014,1.264,0a.585.585,0,0,0,.662-.605v-.038l-.01-.037a.607.607,0,0,0-.639-.475" transform="translate(-109.599 -34.503)"/>
        <path id="Trazado_16661" data-name="Trazado 16661" class="cls-5" d="M219.92,37.833a.647.647,0,0,0-.74-.571c-.378.014-.764.009-1.137,0h-.126a.606.606,0,0,0-.639.476l-.009.037v.038a.588.588,0,0,0,.665.606c.428-.011.865-.011,1.3,0h.027a.615.615,0,0,0,.65-.477l.015-.055Z" transform="translate(-200.97 -34.466)"/>
        <path id="Trazado_16662" data-name="Trazado 16662" class="cls-6" d="M28.459,147.206q6.212,0,12.424-.005c.247,0,.317.06.317.314q-.012,6.431-.006,12.862a1.982,1.982,0,0,1-2.1,2.11H17.8a1.981,1.981,0,0,1-2.1-2.112q0-6.431-.007-12.862c0-.257.074-.313.319-.312q6.226.011,12.451.005" transform="translate(-14.512 -136.159)"/>
        <path id="Trazado_16663" data-name="Trazado 16663" class="cls-6" d="M72.2,14.881c0,.383.011.767,0,1.15a1.329,1.329,0,0,1-2.658-.014q-.018-1.149,0-2.3A1.329,1.329,0,0,1,72.2,13.7c.015.392,0,.785,0,1.178h0" transform="translate(-64.32 -11.493)"/>
        <path id="Trazado_16664" data-name="Trazado 16664" class="cls-6" d="M268.89,14.863c0,.383.008.767,0,1.15a1.311,1.311,0,0,1-1.307,1.3,1.3,1.3,0,0,1-1.35-1.281q-.025-1.163,0-2.328a1.329,1.329,0,0,1,2.656.009c.011.383,0,.767,0,1.15" transform="translate(-246.248 -11.492)"/>
        <path id="Trazado_16665" data-name="Trazado 16665" class="cls-6" d="M167.785,14.864c0-.365-.007-.73,0-1.094a1.341,1.341,0,0,1,2.683,0c.011.729.009,1.459,0,2.188a1.343,1.343,0,1,1-2.685,0c0-.365,0-.729,0-1.094" transform="translate(-155.196 -11.498)"/>
        <path id="Trazado_16666" data-name="Trazado 16666" class="cls-5" d="M114.506,168.13a.485.485,0,0,0-.893.088l-.243.8a5.728,5.728,0,0,0-2.443-2.216,6.6,6.6,0,0,0-8.291,2.032,5.059,5.059,0,0,0-.617,1.341.486.486,0,0,0,.331.6.485.485,0,0,0,.6-.331,4.083,4.083,0,0,1,.5-1.083,5.608,5.608,0,0,1,7.048-1.689,4.775,4.775,0,0,1,2.019,1.81l-1.023-.235a.485.485,0,1,0-.218.946l2.132.489a.492.492,0,0,0,.108.012.483.483,0,0,0,.464-.345l.562-1.855a.483.483,0,0,0-.037-.37" transform="translate(-94.349 -153.666)"/>
        <path id="Trazado_16667" data-name="Trazado 16667" class="cls-4" d="M227.776,252.062a2.825,2.825,0,1,1-2.825-2.825,2.825,2.825,0,0,1,2.825,2.825" transform="translate(-205.462 -230.54)"/>
        <path id="Trazado_16668" data-name="Trazado 16668" class="cls-5" d="M219.165,242.981a3.295,3.295,0,1,0,3.295,3.295,3.3,3.3,0,0,0-3.295-3.295m0,5.651a2.356,2.356,0,1,1,2.356-2.356,2.359,2.359,0,0,1-2.356,2.356" transform="translate(-199.676 -224.754)"/>
        <path id="Trazado_16669" data-name="Trazado 16669" class="cls-4" d="M79.675,252.062a2.825,2.825,0,1,1-2.825-2.825,2.825,2.825,0,0,1,2.825,2.825" transform="translate(-68.471 -230.54)"/>
        <path id="Trazado_16670" data-name="Trazado 16670" class="cls-5" d="M71.064,242.981a3.295,3.295,0,1,0,3.295,3.295,3.3,3.3,0,0,0-3.295-3.295m0,5.651a2.356,2.356,0,1,1,2.356-2.356,2.359,2.359,0,0,1-2.356,2.356" transform="translate(-62.685 -224.754)"/>
      </g>
    </g>
  </g>
</svg>
