<svg xmlns="http://www.w3.org/2000/svg" xmlns:xlink="http://www.w3.org/1999/xlink" width="72" height="72" viewBox="0 0 72 72">
  <defs>
    <style>
      .cls-1 {
        fill: none;
      }

      .cls-2 {
        clip-path: url(#clip-iconBajaUsuarios);
      }

      .cls-3 {
        fill: #f0f8ff;
        opacity: 0.999;
      }

      .cls-4 {
        clip-path: url(#clip-path);
      }

      .cls-5 {
        fill: #9bc8fe;
      }

      .cls-6 {
        fill: #2e72b9;
      }

      .cls-7 {
        fill: #fdfcfd;
      }
    </style>
    <clipPath id="clip-path">
      <rect id="Rectángulo_11091" data-name="Rectángulo 11091" class="cls-1" width="42.311" height="45.557"/>
    </clipPath>
    <clipPath id="clip-iconBajaUsuarios">
      <rect width="72" height="72"/>
    </clipPath>
  </defs>
  <g id="iconBajaUsuarios" class="cls-2">
    <g id="Grupo_22765" data-name="Grupo 22765" transform="translate(8704 19503)">
      <circle id="Elipse_997" data-name="Elipse 997" class="cls-3" cx="35" cy="35" r="35" transform="translate(-8703 -19502)"/>
      <g id="Grupo_22765-2" data-name="Grupo 22765" transform="translate(-8688.472 -19487.146)">
        <g id="Grupo_22727" data-name="Grupo 22727" class="cls-4">
          <path id="Trazado_16603" data-name="Trazado 16603" class="cls-5" d="M29.614,95.992a1.635,1.635,0,0,0,.665.852c-.051.23-.266.278-.43.37a11.151,11.151,0,0,0-4.015,3.749,10.47,10.47,0,0,0-1.746,5.7,11.924,11.924,0,0,0,.266,2.888c.038.154.1.325-.018.48l-1,.09c-.756-.48-1.57-.156-2.346-.122a45.168,45.168,0,0,1-4.773-.011,30.079,30.079,0,0,1-4.237-.566,16.136,16.136,0,0,1-4.334-1.493,6.379,6.379,0,0,1-1.746-1.37,3.415,3.415,0,0,1-.712-2.78,13.544,13.544,0,0,1,2.371-6.7,13.111,13.111,0,0,1,8.174-5.526,13.233,13.233,0,0,1,11.718,2.9,11.518,11.518,0,0,1,1.1,1.086,1.112,1.112,0,0,0,1.064.456" transform="translate(-4.107 -72.677)"/>
          <path id="Trazado_16604" data-name="Trazado 16604" class="cls-6" d="M98.015,127.76a11.328,11.328,0,0,1,1.1-8.655,11.449,11.449,0,0,1,4.843-4.535,11.923,11.923,0,0,1,5.291-1.112,11.251,11.251,0,1,1-11.141,14.557c-.027-.086-.062-.17-.094-.255" transform="translate(-77.785 -90.403)"/>
          <path id="Trazado_16605" data-name="Trazado 16605" class="cls-6" d="M25.5,90.934a14.291,14.291,0,0,0-13.447-4.687A14.36,14.36,0,0,0,3.43,91.169,14.554,14.554,0,0,0,0,100.494a3.859,3.859,0,0,0,1.007,2.678,9.137,9.137,0,0,0,4.408,2.592,29.852,29.852,0,0,0,8.92,1.23c1.256,0,2.61-.058,4.022-.173.4-.033,1-.082,1.019-.83v-.041l-.019-.035a.861.861,0,0,0-.947-.451l-.155.016c-.642.067-1.307.136-1.961.158a32.356,32.356,0,0,1-9.163-.806,11.789,11.789,0,0,1-4.423-1.9,3,3,0,0,1-1.367-2.218,9.074,9.074,0,0,1,.115-1.962A12.886,12.886,0,0,1,5.61,90.885a12.932,12.932,0,0,1,13.219-2.817,12.568,12.568,0,0,1,5.6,3.7.779.779,0,0,0,1.182.2l.026-.031a.761.761,0,0,0-.138-1" transform="translate(0 -68.541)"/>
          <path id="Trazado_16606" data-name="Trazado 16606" class="cls-6" d="M42.443,14.942a7.471,7.471,0,1,1,7.467-7.481,7.473,7.473,0,0,1-7.467,7.481" transform="translate(-27.864 0)"/>
          <path id="Trazado_16607" data-name="Trazado 16607" class="cls-7" d="M113.7,139.671a10,10,0,1,1,10-10.051,10.046,10.046,0,0,1-10,10.051" transform="translate(-82.627 -95.35)"/>
          <path id="Trazado_16608" data-name="Trazado 16608" class="cls-7" d="M53.8,12.769A6.11,6.11,0,1,1,47.7,6.65a6.115,6.115,0,0,1,6.1,6.119" transform="translate(-33.132 -5.298)"/>
          <path id="Trazado_16609" data-name="Trazado 16609" class="cls-6" d="M136.929,150.55a2.465,2.465,0,0,1-4.131,1.591c-.383-.346-.749-.712-1.1-1.094-.2-.218-.318-.192-.5.01-.306.336-.637.651-.962.97a2.46,2.46,0,1,1-3.466-3.488c.33-.335.656-.676,1-.995.182-.168.158-.272-.009-.43q-.562-.532-1.095-1.095a2.456,2.456,0,0,1,3.481-3.465c.352.335.706.67,1.027,1.034.222.251.361.218.567-.012.3-.339.635-.653.963-.969a2.458,2.458,0,1,1,3.464,3.488c-.328.338-.651.681-1,.994-.22.2-.19.313.009.5.379.35.74.72,1.1,1.094a2.515,2.515,0,0,1,.656,1.871" transform="translate(-100.379 -113.027)"/>
          <path id="Trazado_16610" data-name="Trazado 16610" class="cls-5" d="M138.558,155.886a1.45,1.45,0,0,1-1.035-.438q-.733-.747-1.481-1.48c-.383-.376-.617-.373-1.006.008-.487.478-.963.968-1.451,1.446a1.418,1.418,0,0,1-2.068.039,1.4,1.4,0,0,1,.053-2.032c.487-.5.989-.985,1.478-1.482a.581.581,0,0,0,0-.972c-.478-.487-.967-.964-1.446-1.45a1.422,1.422,0,1,1,2.016-1.994c.453.448.9.9,1.352,1.351.494.492.652.49,1.159-.015.462-.461.919-.926,1.385-1.382a1.415,1.415,0,0,1,2.035-.045,1.391,1.391,0,0,1-.015,2.03c-.484.5-.987.987-1.477,1.483-.373.378-.376.631-.009,1,.511.519,1.043,1.017,1.538,1.551a1.33,1.33,0,0,1,.262,1.557,1.375,1.375,0,0,1-1.291.821" transform="translate(-104.468 -117.156)"/>
        </g>
      </g>
    </g>
  </g>
</svg>
